<?xml version="1.0" encoding="utf-8"?>
<svg id="master-artboard" viewBox="0 0 754.9562377929688 678.8924560546875" version="1.1" xmlns="http://www.w3.org/2000/svg" x="0px" y="0px" style="enable-background:new 0 0 1400 980;" width="754.9562377929688px" height="678.8924560546875px"><rect id="ee-background" x="0" y="0" width="754.9562377929688" height="678.8924560546875" style="fill: white; fill-opacity: 0; pointer-events: none;"/><defs><clipPath id="presentation_clip_path" clipPathUnits="userSpaceOnUse">
   <path d="M 0 0 H 6376 V 6376 H 0 V 0 Z"/>
  </clipPath><clipPath id="presentation_clip_path_shrink" clipPathUnits="userSpaceOnUse">
   <path d="M 6 6 H 6370 V 6370 H 6 V 6 Z"/>
  </clipPath><g/><g id="bullet-char-template-57356" transform="scale(0.00048828125,-0.00048828125)">
   <path d="M 580,1141 L 1163,571 580,0 -4,571 580,1141 Z"/>
  </g><g id="bullet-char-template-57354" transform="scale(0.00048828125,-0.00048828125)">
   <path d="M 8,1128 L 1137,1128 1137,0 8,0 8,1128 Z"/>
  </g><g id="bullet-char-template-10146" transform="scale(0.00048828125,-0.00048828125)">
   <path d="M 174,0 L 602,739 174,1481 1456,739 174,0 Z M 1358,739 L 309,1346 659,739 1358,739 Z"/>
  </g><g id="bullet-char-template-10132" transform="scale(0.00048828125,-0.00048828125)">
   <path d="M 2015,739 L 1276,0 717,0 1260,543 174,543 174,936 1260,936 717,1481 1274,1481 2015,739 Z"/>
  </g><g id="bullet-char-template-10007" transform="scale(0.00048828125,-0.00048828125)">
   <path d="M 0,-2 C -7,14 -16,27 -25,37 L 356,567 C 262,823 215,952 215,954 215,979 228,992 255,992 264,992 276,990 289,987 310,991 331,999 354,1012 L 381,999 492,748 772,1049 836,1024 860,1049 C 881,1039 901,1025 922,1006 886,937 835,863 770,784 769,783 710,716 594,584 L 774,223 C 774,196 753,168 711,139 L 727,119 C 717,90 699,76 672,76 641,76 570,178 457,381 L 164,-76 C 142,-110 111,-127 72,-127 30,-127 9,-110 8,-76 1,-67 -2,-52 -2,-32 -2,-23 -1,-13 0,-2 Z"/>
  </g><g id="bullet-char-template-10004" transform="scale(0.00048828125,-0.00048828125)">
   <path d="M 285,-33 C 182,-33 111,30 74,156 52,228 41,333 41,471 41,549 55,616 82,672 116,743 169,778 240,778 293,778 328,747 346,684 L 369,508 C 377,444 397,411 428,410 L 1163,1116 C 1174,1127 1196,1133 1229,1133 1271,1133 1292,1118 1292,1087 L 1292,965 C 1292,929 1282,901 1262,881 L 442,47 C 390,-6 338,-33 285,-33 Z"/>
  </g><g id="bullet-char-template-9679" transform="scale(0.00048828125,-0.00048828125)">
   <path d="M 813,0 C 632,0 489,54 383,161 276,268 223,411 223,592 223,773 276,916 383,1023 489,1130 632,1184 813,1184 992,1184 1136,1130 1245,1023 1353,916 1407,772 1407,592 1407,412 1353,268 1245,161 1136,54 992,0 813,0 Z"/>
  </g><g id="bullet-char-template-8226" transform="scale(0.00048828125,-0.00048828125)">
   <path d="M 346,457 C 273,457 209,483 155,535 101,586 74,649 74,723 74,796 101,859 155,911 209,963 273,989 346,989 419,989 480,963 531,910 582,859 608,796 608,723 608,648 583,586 532,535 482,483 420,457 346,457 Z"/>
  </g><g id="bullet-char-template-8211" transform="scale(0.00048828125,-0.00048828125)">
   <path d="M -4,459 L 1135,459 1135,606 -4,606 -4,459 Z"/>
  </g><g id="bullet-char-template-61548" transform="scale(0.00048828125,-0.00048828125)">
   <path d="M 173,740 C 173,903 231,1043 346,1159 462,1274 601,1332 765,1332 928,1332 1067,1274 1183,1159 1299,1043 1357,903 1357,740 1357,577 1299,437 1183,322 1067,206 928,148 765,148 601,148 462,206 346,322 231,437 173,577 173,740 Z"/>
  </g></defs><g transform="matrix(0.15370139479637146, 0, 0, 0.15370139479637146, -112.47611236572266, -150.54761219024658)"><g>
  <g id="id2" class="Master_Slide">
   <g id="bg-id2" class="Background"/>
   <g id="bo-id2" class="BackgroundObjects"/>
  </g>
 </g><g class="SlideGroup">
  <g>
   <g id="container-id1">
    <g id="id1" class="Slide" clip-path="url(#presentation_clip_path)">
     <g class="Page">
      <g class="Graphic">
       <g id="id3">
        <path d="M 0 0 H 6376 V 6376 H 0 V 0 Z" class="BoundingBox" stroke="none" fill="none"/>
        <path fill="rgb(89,203,232)" stroke="none" d="M 4163,2130 C 4550,2130 4898,2279 5153,2520 5407,2762 5565,3096 5565,3467 5565,3837 5407,4171 5153,4414 4900,4654 4550,4804 4163,4804 3888,4804 3632,4729 3415,4599 3436,4564 3454,4528 3472,4490 3483,4467 3493,4444 3502,4419 3692,4537 3918,4605 4162,4605 4495,4605 4796,4477 5015,4271 5232,4065 5365,3781 5365,3467 5365,3153 5230,2870 5015,2664 4796,2457 4495,2329 4162,2329 3829,2329 3528,2457 3310,2664 3229,2740 3161,2825 3107,2921 3055,2879 3000,2843 2943,2810 3006,2704 3084,2607 3174,2520 3427,2279 3777,2130 4163,2130 L 4163,2130 4163,2130 Z"/>
        <path fill="none" stroke="rgb(89,203,232)" stroke-width="155" stroke-linejoin="miter" stroke-linecap="round" d="M 4163,2130 C 4550,2130 4898,2279 5153,2520 5407,2762 5565,3096 5565,3467 5565,3837 5407,4171 5153,4414 4900,4654 4550,4804 4163,4804 3888,4804 3632,4729 3415,4599 3436,4564 3454,4528 3472,4490 3483,4467 3493,4444 3502,4419 3692,4537 3918,4605 4162,4605 4495,4605 4796,4477 5015,4271 5232,4065 5365,3781 5365,3467 5365,3153 5230,2870 5015,2664 4796,2457 4495,2329 4162,2329 3829,2329 3528,2457 3310,2664 3229,2740 3161,2825 3107,2921 3055,2879 3000,2843 2943,2810 3006,2704 3084,2607 3174,2520 3427,2279 3777,2130 4163,2130 L 4163,2130 4163,2130 Z"/>
        <path fill="rgb(89,203,232)" stroke="none" d="M 4163,2443 C 4281,2443 4388,2476 4468,2531 4559,2593 4614,2682 4614,2783 4614,2883 4559,2972 4468,3034 4388,3089 4281,3122 4163,3122 4046,3122 3939,3089 3859,3034 3768,2972 3713,2883 3713,2783 3713,2682 3768,2593 3859,2531 3937,2476 4046,2443 4163,2443 L 4163,2443 Z M 4356,2695 C 4308,2662 4240,2642 4162,2642 4085,2642 4016,2662 3968,2695 3931,2719 3909,2752 3909,2783 3909,2814 3932,2846 3968,2870 4016,2903 4085,2923 4162,2923 4240,2923 4308,2903 4356,2870 4393,2846 4415,2814 4415,2783 4415,2752 4393,2719 4356,2695 L 4356,2695 Z"/>
        <path fill="none" stroke="rgb(89,203,232)" stroke-width="19" stroke-linejoin="miter" stroke-linecap="round" d="M 4163,2443 C 4281,2443 4388,2476 4468,2531 4559,2593 4614,2682 4614,2783 4614,2883 4559,2972 4468,3034 4388,3089 4281,3122 4163,3122 4046,3122 3939,3089 3859,3034 3768,2972 3713,2883 3713,2783 3713,2682 3768,2593 3859,2531 3937,2476 4046,2443 4163,2443 L 4163,2443 Z"/>
        <path fill="none" stroke="rgb(89,203,232)" stroke-width="19" stroke-linejoin="miter" stroke-linecap="round" d="M 4356,2695 C 4308,2662 4240,2642 4162,2642 4085,2642 4016,2662 3968,2695 3931,2719 3909,2752 3909,2783 3909,2814 3932,2846 3968,2870 4016,2903 4085,2923 4162,2923 4240,2923 4308,2903 4356,2870 4393,2846 4415,2814 4415,2783 4415,2752 4393,2719 4356,2695 L 4356,2695 Z"/>
        <path fill="rgb(89,203,232)" stroke="none" d="M 1713,2730 C 2072,2588 2452,2598 2776,2728 3102,2860 3372,3113 3507,3457 3643,3800 3620,4170 3472,4489 3325,4807 3055,5073 2696,5215 2337,5357 1957,5347 1633,5216 1307,5084 1038,4831 902,4488 766,4144 790,3775 937,3456 1084,3138 1354,2870 1713,2730 L 1713,2730 1713,2730 Z M 2702,2912 C 2423,2799 2097,2792 1787,2914 1477,3037 1244,3267 1118,3539 992,3811 972,4123 1087,4415 1202,4707 1430,4922 1708,5033 1987,5145 2314,5153 2624,5030 2934,4907 3166,4677 3293,4405 3418,4134 3439,3821 3324,3529 3208,3237 2979,3023 2702,2912 L 2702,2912 2702,2912 Z"/>
        <path fill="none" stroke="rgb(89,203,232)" stroke-width="155" stroke-linejoin="miter" stroke-linecap="round" d="M 1713,2730 C 2072,2588 2452,2598 2776,2728 3102,2860 3372,3113 3507,3457 3643,3800 3620,4170 3472,4489 3325,4807 3055,5073 2696,5215 2337,5357 1957,5347 1633,5216 1307,5084 1038,4831 902,4488 766,4144 790,3775 937,3456 1084,3138 1354,2870 1713,2730 L 1713,2730 1713,2730 Z"/>
        <path fill="none" stroke="rgb(89,203,232)" stroke-width="155" stroke-linejoin="miter" stroke-linecap="round" d="M 2702,2912 C 2423,2799 2097,2792 1787,2914 1477,3037 1244,3267 1118,3539 992,3811 972,4123 1087,4415 1202,4707 1430,4922 1708,5033 1987,5145 2314,5153 2624,5030 2934,4907 3166,4677 3293,4405 3418,4134 3439,3821 3324,3529 3208,3237 2979,3023 2702,2912 L 2702,2912 2702,2912 Z"/>
        <path fill="rgb(89,203,232)" stroke="none" d="M 3158,1171 C 3515,1319 3780,1590 3922,1909 3954,1983 3981,2061 3999,2138 3932,2146 3868,2157 3804,2173 3789,2111 3767,2049 3741,1989 3620,1714 3390,1481 3082,1353 2775,1225 2447,1227 2166,1335 1887,1442 1655,1652 1535,1942 1416,2227 1429,2536 1545,2806 1486,2838 1430,2874 1377,2914 1375,2909 1372,2903 1369,2898 1227,2576 1211,2206 1351,1865 1493,1524 1767,1275 2095,1150 2422,1026 2803,1023 3158,1171 L 3158,1171 3158,1171 Z"/>
        <path fill="none" stroke="rgb(89,203,232)" stroke-width="155" stroke-linejoin="miter" stroke-linecap="round" d="M 3158,1171 C 3515,1319 3780,1590 3922,1909 3954,1983 3981,2061 3999,2138 3932,2146 3868,2157 3804,2173 3789,2111 3767,2049 3741,1989 3620,1714 3390,1481 3082,1353 2775,1225 2447,1227 2166,1335 1887,1442 1655,1652 1535,1942 1416,2227 1429,2536 1545,2806 1486,2838 1430,2874 1377,2914 1375,2909 1372,2903 1369,2898 1227,2576 1211,2206 1351,1865 1493,1524 1767,1275 2095,1150 2422,1026 2803,1023 3158,1171 L 3158,1171 3158,1171 Z"/>
        <path fill="rgb(89,203,232)" stroke="none" d="M 1833,3076 C 1944,3037 2057,3033 2150,3059 2256,3087 2337,3153 2371,3249 2404,3344 2380,3446 2315,3534 2258,3612 2166,3679 2055,3718 1944,3756 1832,3760 1739,3735 1633,3706 1552,3640 1518,3545 1484,3449 1509,3347 1574,3259 1632,3182 1722,3115 1833,3076 L 1833,3076 1833,3076 Z M 2098,3249 C 2042,3233 1971,3237 1898,3263 1825,3289 1767,3330 1732,3377 1705,3413 1695,3450 1705,3480 1716,3510 1748,3532 1791,3543 1846,3559 1917,3555 1991,3529 2063,3503 2121,3462 2156,3415 2183,3379 2194,3342 2183,3312 2173,3284 2142,3260 2098,3249 L 2098,3249 2098,3249 Z"/>
        <path fill="none" stroke="rgb(89,203,232)" stroke-width="19" stroke-linejoin="miter" stroke-linecap="round" d="M 1833,3076 C 1944,3037 2057,3033 2150,3059 2256,3087 2337,3153 2371,3249 2404,3344 2380,3446 2315,3534 2258,3612 2166,3679 2055,3718 1944,3756 1832,3760 1739,3735 1633,3706 1552,3640 1518,3545 1484,3449 1509,3347 1574,3259 1632,3182 1722,3115 1833,3076 L 1833,3076 1833,3076 Z"/>
        <path fill="none" stroke="rgb(89,203,232)" stroke-width="19" stroke-linejoin="miter" stroke-linecap="round" d="M 2098,3249 C 2042,3233 1971,3237 1898,3263 1825,3289 1767,3330 1732,3377 1705,3413 1695,3450 1705,3480 1716,3510 1748,3532 1791,3543 1846,3559 1917,3555 1991,3529 2063,3503 2121,3462 2156,3415 2183,3379 2194,3342 2183,3312 2173,3284 2142,3260 2098,3249 L 2098,3249 2098,3249 Z"/>
        <path fill="rgb(89,203,232)" stroke="none" d="M 3129,1530 C 3231,1588 3307,1672 3348,1758 3396,1856 3400,1962 3350,2049 3299,2137 3206,2186 3096,2194 3001,2201 2890,2175 2789,2117 2687,2059 2611,1975 2569,1889 2522,1791 2518,1685 2568,1598 2619,1510 2712,1461 2821,1453 2917,1447 3027,1472 3129,1530 L 3129,1530 3129,1530 Z M 3170,1845 C 3146,1793 3096,1741 3029,1703 2962,1664 2894,1647 2836,1652 2790,1656 2755,1672 2740,1699 2724,1726 2728,1765 2748,1805 2772,1856 2821,1908 2888,1947 2956,1986 3024,2002 3082,1997 3127,1993 3162,1978 3178,1951 3193,1924 3189,1885 3170,1845 L 3170,1845 3170,1845 Z"/>
        <path fill="none" stroke="rgb(89,203,232)" stroke-width="19" stroke-linejoin="miter" stroke-linecap="round" d="M 3129,1530 C 3231,1588 3307,1672 3348,1758 3396,1856 3400,1962 3350,2049 3299,2137 3206,2186 3096,2194 3001,2201 2890,2175 2789,2117 2687,2059 2611,1975 2569,1889 2522,1791 2518,1685 2568,1598 2619,1510 2712,1461 2821,1453 2917,1447 3027,1472 3129,1530 L 3129,1530 3129,1530 Z"/>
        <path fill="none" stroke="rgb(89,203,232)" stroke-width="19" stroke-linejoin="miter" stroke-linecap="round" d="M 3170,1845 C 3146,1793 3096,1741 3029,1703 2962,1664 2894,1647 2836,1652 2790,1656 2755,1672 2740,1699 2724,1726 2728,1765 2748,1805 2772,1856 2821,1908 2888,1947 2956,1986 3024,2002 3082,1997 3127,1993 3162,1978 3178,1951 3193,1924 3189,1885 3170,1845 L 3170,1845 3170,1845 Z"/>
       </g>
      </g>
     </g>
    </g>
   </g>
  </g>
 </g></g></svg>