<?xml version="1.0" encoding="utf-8"?>
<svg id="master-artboard" viewBox="0 0 605.9500732421875 606.16259765625" version="1.1" xmlns="http://www.w3.org/2000/svg" x="0px" y="0px" style="enable-background:new 0 0 1400 980;" width="605.9500732421875px" height="606.16259765625px"><defs><clipPath id="presentation_clip_path" clipPathUnits="userSpaceOnUse">
   <path d="M 0 0 H 6376 V 6376 H 0 V 0 Z"/>
  </clipPath><clipPath id="presentation_clip_path_shrink" clipPathUnits="userSpaceOnUse">
   <path d="M 6 6 H 6370 V 6370 H 6 V 6 Z"/>
  </clipPath><g/><g id="bullet-char-template-57356" transform="scale(0.00048828125,-0.00048828125)">
   <path d="M 580,1141 L 1163,571 580,0 -4,571 580,1141 Z"/>
  </g><g id="bullet-char-template-57354" transform="scale(0.00048828125,-0.00048828125)">
   <path d="M 8,1128 L 1137,1128 1137,0 8,0 8,1128 Z"/>
  </g><g id="bullet-char-template-10146" transform="scale(0.00048828125,-0.00048828125)">
   <path d="M 174,0 L 602,739 174,1481 1456,739 174,0 Z M 1358,739 L 309,1346 659,739 1358,739 Z"/>
  </g><g id="bullet-char-template-10132" transform="scale(0.00048828125,-0.00048828125)">
   <path d="M 2015,739 L 1276,0 717,0 1260,543 174,543 174,936 1260,936 717,1481 1274,1481 2015,739 Z"/>
  </g><g id="bullet-char-template-10007" transform="scale(0.00048828125,-0.00048828125)">
   <path d="M 0,-2 C -7,14 -16,27 -25,37 L 356,567 C 262,823 215,952 215,954 215,979 228,992 255,992 264,992 276,990 289,987 310,991 331,999 354,1012 L 381,999 492,748 772,1049 836,1024 860,1049 C 881,1039 901,1025 922,1006 886,937 835,863 770,784 769,783 710,716 594,584 L 774,223 C 774,196 753,168 711,139 L 727,119 C 717,90 699,76 672,76 641,76 570,178 457,381 L 164,-76 C 142,-110 111,-127 72,-127 30,-127 9,-110 8,-76 1,-67 -2,-52 -2,-32 -2,-23 -1,-13 0,-2 Z"/>
  </g><g id="bullet-char-template-10004" transform="scale(0.00048828125,-0.00048828125)">
   <path d="M 285,-33 C 182,-33 111,30 74,156 52,228 41,333 41,471 41,549 55,616 82,672 116,743 169,778 240,778 293,778 328,747 346,684 L 369,508 C 377,444 397,411 428,410 L 1163,1116 C 1174,1127 1196,1133 1229,1133 1271,1133 1292,1118 1292,1087 L 1292,965 C 1292,929 1282,901 1262,881 L 442,47 C 390,-6 338,-33 285,-33 Z"/>
  </g><g id="bullet-char-template-9679" transform="scale(0.00048828125,-0.00048828125)">
   <path d="M 813,0 C 632,0 489,54 383,161 276,268 223,411 223,592 223,773 276,916 383,1023 489,1130 632,1184 813,1184 992,1184 1136,1130 1245,1023 1353,916 1407,772 1407,592 1407,412 1353,268 1245,161 1136,54 992,0 813,0 Z"/>
  </g><g id="bullet-char-template-8226" transform="scale(0.00048828125,-0.00048828125)">
   <path d="M 346,457 C 273,457 209,483 155,535 101,586 74,649 74,723 74,796 101,859 155,911 209,963 273,989 346,989 419,989 480,963 531,910 582,859 608,796 608,723 608,648 583,586 532,535 482,483 420,457 346,457 Z"/>
  </g><g id="bullet-char-template-8211" transform="scale(0.00048828125,-0.00048828125)">
   <path d="M -4,459 L 1135,459 1135,606 -4,606 -4,459 Z"/>
  </g><g id="bullet-char-template-61548" transform="scale(0.00048828125,-0.00048828125)">
   <path d="M 173,740 C 173,903 231,1043 346,1159 462,1274 601,1332 765,1332 928,1332 1067,1274 1183,1159 1299,1043 1357,903 1357,740 1357,577 1299,437 1183,322 1067,206 928,148 765,148 601,148 462,206 346,322 231,437 173,577 173,740 Z"/>
  </g></defs><rect id="ee-background" x="0" y="0" width="605.9500732421875" height="606.16259765625" style="fill: white; fill-opacity: 0; pointer-events: none;"/><g transform="matrix(0.10647622495889664, 0, 0, 0.10647622495889664, -36.36978530883789, -36.44678235054016)"><g>
  <g id="id2" class="Master_Slide">
   <g id="bg-id2" class="Background"/>
   <g id="bo-id2" class="BackgroundObjects"/>
  </g>
 </g><g class="SlideGroup">
  <g>
   <g id="container-id1">
    <g id="id1" class="Slide" clip-path="url(#presentation_clip_path)">
     <g class="Page">
      <g class="Graphic">
       <g id="id3">
        <path d="M 0 0 H 6376 V 6376 H 0 V 0 Z" class="BoundingBox" stroke="none" fill="none"/>
        <path fill="none" stroke="rgb(89,203,232)" stroke-width="397" stroke-linejoin="round" stroke-linecap="round" d="M 3444,1267 L 733,3555 C 770,3537 807,3523 849,3516 L 4912,2725 C 4425,1603 3444,1267 3444,1267 L 3444,1267 Z"/>
        <path fill="none" stroke="rgb(89,203,232)" stroke-width="397" stroke-linejoin="round" stroke-linecap="round" d="M 4992,2926 C 4968,2857 4941,2788 4912,2725 L 849,3516 C 807,3523 770,3537 733,3555 L 730,3558 C 619,3619 548,3738 548,3873 L 548,4891 4611,4891 C 4886,4891 5108,4669 5108,4394 L 5108,3698 C 5108,3436 5076,3174 4992,2926 L 4992,2926 Z"/>
        <path fill="none" stroke="rgb(89,203,232)" stroke-width="397" stroke-linejoin="round" stroke-linecap="round" d="M 5767,1545 C 5285,936 4756,672 4322,563 3875,452 3444,802 3444,1262 L 3444,1267 C 3444,1267 4425,1603 4912,2725 4933,2770 4952,2815 4968,2862 4894,2354 5431,2121 5655,2016 5769,1963 5833,1849 5833,1733 5833,1669 5812,1600 5767,1545 L 5767,1545 Z"/>
        <path fill="none" stroke="rgb(89,203,232)" stroke-width="397" stroke-linejoin="round" stroke-linecap="round" d="M 5655,2016 C 5431,2121 4894,2354 4968,2862 L 4968,2865 C 4978,2886 4984,2904 4992,2926 5076,3174 5108,3436 5108,3698 L 5108,4394 C 5108,4669 4886,4891 4611,4891 L 548,4891 542,4891 542,5513 C 542,5690 685,5833 862,5833 L 4928,5833 C 5428,5833 5833,5428 5833,4928 L 5833,1733 C 5833,1849 5769,1963 5655,2016 L 5655,2016 Z"/>
        <path fill="none" stroke="rgb(89,203,232)" stroke-width="397" stroke-linejoin="round" stroke-linecap="round" d="M 2822,3933 C 3106,3894 3148,4203 3431,4164 3714,4124 3672,3814 3955,3775 4238,3735 4280,4045 4566,4005 4849,3965 4828,3656 5111,3616"/>
       </g>
      </g>
     </g>
    </g>
   </g>
  </g>
 </g></g></svg>