<?xml version="1.0" encoding="utf-8"?>
<svg id="master-artboard" viewBox="0 0 541 541.0388793945312" version="1.1" xmlns="http://www.w3.org/2000/svg" x="0px" y="0px" style="enable-background:new 0 0 1400 980;" width="541px" height="541.0388793945312px"><defs><clipPath id="presentation_clip_path" clipPathUnits="userSpaceOnUse">
   <path d="M 0 0 H 6376 V 6376 H 0 V 0 Z"/>
  </clipPath><clipPath id="presentation_clip_path_shrink" clipPathUnits="userSpaceOnUse">
   <path d="M 6 6 H 6370 V 6370 H 6 V 6 Z"/>
  </clipPath><g/><g id="bullet-char-template-57356" transform="scale(0.00048828125,-0.00048828125)">
   <path d="M 580,1141 L 1163,571 580,0 -4,571 580,1141 Z"/>
  </g><g id="bullet-char-template-57354" transform="scale(0.00048828125,-0.00048828125)">
   <path d="M 8,1128 L 1137,1128 1137,0 8,0 8,1128 Z"/>
  </g><g id="bullet-char-template-10146" transform="scale(0.00048828125,-0.00048828125)">
   <path d="M 174,0 L 602,739 174,1481 1456,739 174,0 Z M 1358,739 L 309,1346 659,739 1358,739 Z"/>
  </g><g id="bullet-char-template-10132" transform="scale(0.00048828125,-0.00048828125)">
   <path d="M 2015,739 L 1276,0 717,0 1260,543 174,543 174,936 1260,936 717,1481 1274,1481 2015,739 Z"/>
  </g><g id="bullet-char-template-10007" transform="scale(0.00048828125,-0.00048828125)">
   <path d="M 0,-2 C -7,14 -16,27 -25,37 L 356,567 C 262,823 215,952 215,954 215,979 228,992 255,992 264,992 276,990 289,987 310,991 331,999 354,1012 L 381,999 492,748 772,1049 836,1024 860,1049 C 881,1039 901,1025 922,1006 886,937 835,863 770,784 769,783 710,716 594,584 L 774,223 C 774,196 753,168 711,139 L 727,119 C 717,90 699,76 672,76 641,76 570,178 457,381 L 164,-76 C 142,-110 111,-127 72,-127 30,-127 9,-110 8,-76 1,-67 -2,-52 -2,-32 -2,-23 -1,-13 0,-2 Z"/>
  </g><g id="bullet-char-template-10004" transform="scale(0.00048828125,-0.00048828125)">
   <path d="M 285,-33 C 182,-33 111,30 74,156 52,228 41,333 41,471 41,549 55,616 82,672 116,743 169,778 240,778 293,778 328,747 346,684 L 369,508 C 377,444 397,411 428,410 L 1163,1116 C 1174,1127 1196,1133 1229,1133 1271,1133 1292,1118 1292,1087 L 1292,965 C 1292,929 1282,901 1262,881 L 442,47 C 390,-6 338,-33 285,-33 Z"/>
  </g><g id="bullet-char-template-9679" transform="scale(0.00048828125,-0.00048828125)">
   <path d="M 813,0 C 632,0 489,54 383,161 276,268 223,411 223,592 223,773 276,916 383,1023 489,1130 632,1184 813,1184 992,1184 1136,1130 1245,1023 1353,916 1407,772 1407,592 1407,412 1353,268 1245,161 1136,54 992,0 813,0 Z"/>
  </g><g id="bullet-char-template-8226" transform="scale(0.00048828125,-0.00048828125)">
   <path d="M 346,457 C 273,457 209,483 155,535 101,586 74,649 74,723 74,796 101,859 155,911 209,963 273,989 346,989 419,989 480,963 531,910 582,859 608,796 608,723 608,648 583,586 532,535 482,483 420,457 346,457 Z"/>
  </g><g id="bullet-char-template-8211" transform="scale(0.00048828125,-0.00048828125)">
   <path d="M -4,459 L 1135,459 1135,606 -4,606 -4,459 Z"/>
  </g><g id="bullet-char-template-61548" transform="scale(0.00048828125,-0.00048828125)">
   <path d="M 173,740 C 173,903 231,1043 346,1159 462,1274 601,1332 765,1332 928,1332 1067,1274 1183,1159 1299,1043 1357,903 1357,740 1357,577 1299,437 1183,322 1067,206 928,148 765,148 601,148 462,206 346,322 231,437 173,577 173,740 Z"/>
  </g></defs><rect id="ee-background" x="0" y="0" width="541" height="541.0388793945312" style="fill: white; fill-opacity: 0; pointer-events: none;"/><g transform="matrix(0.09476138115992043, 0, 0, 0.09476138115992043, -31.59921563556612, -32.345663326796306)"><g>
  <g id="id2" class="Master_Slide">
   <g id="bg-id2" class="Background"/>
   <g id="bo-id2" class="BackgroundObjects"/>
  </g>
 </g><g class="SlideGroup">
  <g>
   <g id="container-id1">
    <g id="id1" class="Slide" clip-path="url(#presentation_clip_path)">
     <g class="Page">
      <g class="Graphic">
       <g id="id3">
        <path d="M 0 0 H 6376 V 6376 H 0 V 0 Z" class="BoundingBox" stroke="none" fill="none"/>
        <path fill="none" stroke="rgb(184,150,212)" stroke-width="397" stroke-linejoin="miter" stroke-linecap="round" d="M 3190,2526 C 3209,2098 3314,764 3970,542"/>
        <path fill="none" stroke="rgb(184,150,212)" stroke-width="397" stroke-linejoin="miter" stroke-linecap="round" d="M 2021,704 C 2021,704 1963,1992 3222,2114 3222,2114 3418,1090 2021,704 L 2021,704 Z"/>
        <path fill="none" stroke="rgb(184,150,212)" stroke-width="397" stroke-linejoin="round" stroke-linecap="round" d="M 4775,3055 C 5067,3055 5304,2818 5304,2526 5304,2234 5067,1997 4775,1997 4482,1997 4246,2234 4246,2526 4246,2818 4482,3055 4775,3055 L 4775,3055 Z"/>
        <path fill="none" stroke="rgb(184,150,212)" stroke-width="397" stroke-linejoin="round" stroke-linecap="round" d="M 3717,3055 C 4009,3055 4246,2818 4246,2526 4246,2234 4009,1997 3717,1997 3424,1997 3188,2234 3188,2526 3188,2818 3424,3055 3717,3055 L 3717,3055 Z"/>
        <path fill="none" stroke="rgb(184,150,212)" stroke-width="397" stroke-linejoin="round" stroke-linecap="round" d="M 2658,3055 C 2951,3055 3188,2818 3188,2526 3188,2234 2951,1997 2658,1997 2366,1997 2129,2234 2129,2526 2129,2818 2366,3055 2658,3055 L 2658,3055 Z"/>
        <path fill="none" stroke="rgb(184,150,212)" stroke-width="397" stroke-linejoin="round" stroke-linecap="round" d="M 1600,3055 C 1893,3055 2129,2818 2129,2526 2129,2234 1893,1997 1600,1997 1308,1997 1071,2234 1071,2526 1071,2818 1308,3055 1600,3055 L 1600,3055 Z"/>
        <path fill="none" stroke="rgb(184,150,212)" stroke-width="397" stroke-linejoin="round" stroke-linecap="round" d="M 4246,3981 C 4538,3981 4775,3744 4775,3452 4775,3160 4538,2923 4246,2923 3953,2923 3717,3160 3717,3452 3717,3744 3953,3981 4246,3981 L 4246,3981 Z"/>
        <path fill="none" stroke="rgb(184,150,212)" stroke-width="397" stroke-linejoin="round" stroke-linecap="round" d="M 3188,3981 C 3480,3981 3717,3744 3717,3452 3717,3160 3480,2923 3188,2923 2895,2923 2658,3160 2658,3452 2658,3744 2895,3981 3188,3981 L 3188,3981 Z"/>
        <path fill="none" stroke="rgb(184,150,212)" stroke-width="397" stroke-linejoin="round" stroke-linecap="round" d="M 2129,3981 C 2422,3981 2658,3744 2658,3452 2658,3160 2422,2923 2129,2923 1837,2923 1600,3160 1600,3452 1600,3744 1837,3981 2129,3981 L 2129,3981 Z"/>
        <path fill="none" stroke="rgb(184,150,212)" stroke-width="397" stroke-linejoin="round" stroke-linecap="round" d="M 3717,4907 C 4009,4907 4246,4670 4246,4378 4246,4086 4009,3849 3717,3849 3424,3849 3188,4086 3188,4378 3188,4670 3424,4907 3717,4907 L 3717,4907 Z"/>
        <path fill="none" stroke="rgb(184,150,212)" stroke-width="397" stroke-linejoin="round" stroke-linecap="round" d="M 2658,4907 C 2951,4907 3188,4670 3188,4378 3188,4086 2951,3849 2658,3849 2366,3849 2129,4086 2129,4378 2129,4670 2366,4907 2658,4907 L 2658,4907 Z"/>
        <path fill="none" stroke="rgb(184,150,212)" stroke-width="397" stroke-linejoin="round" stroke-linecap="round" d="M 3188,5833 C 3480,5833 3717,5596 3717,5304 3717,5011 3480,4775 3188,4775 2895,4775 2658,5011 2658,5304 2658,5596 2895,5833 3188,5833 L 3188,5833 Z"/>
       </g>
      </g>
     </g>
    </g>
   </g>
  </g>
 </g></g></svg>